<svg id="Layer_1" data-name="Layer 1" xmlns="http://www.w3.org/2000/svg" viewBox="0 0 474.01 99.42"><defs><style>.cls-1{fill:#00a0a3;}</style></defs><path class="cls-1" d="M520.78,266.27v-10H517.4v-1.87h8.94v1.87h-3.43v10Z" transform="translate(-65.52 -229.52)"/><path class="cls-1" d="M533.23,263.43l-2-3.65a11.15,11.15,0,0,1-.9-2h-.09a13,13,0,0,1,.13,2.1v6.36h-2.16V254.41h2.36l2.64,5a9.35,9.35,0,0,1,.68,1.52h.08a7.28,7.28,0,0,1,.69-1.52l2.61-5h2.3v11.86h-2.16v-6.36a15.33,15.33,0,0,1,.11-2.1h-.08a10.56,10.56,0,0,1-.89,2l-2,3.65Z" transform="translate(-65.52 -229.52)"/><path class="cls-1" d="M363.34,274.55l-9-8.19c7.87-8.62,17.14-11.4,26.41-11.4,14.18,0,28.65,7.5,28.65,23.76V326.1a136.57,136.57,0,0,1-25.08,2.84c-16.18,0-30.33-5-30.33-23.31,0-22.66,23.95-28.12,40-21.17v-5.32C391.57,265.93,372.19,265.11,363.34,274.55ZM394,296.77c-7.72-3.62-24.89-4-25.59,8.1-.85,14.6,16.38,13.37,25.59,11.26Z" transform="translate(-65.52 -229.52)"/><path class="cls-1" d="M218.34,313.25c-5.56,9.67-16.42,14.44-25.87,14.44-14.19,0-28.52-8-28.52-24.24v-24.8c0-16.48,14.33-24.24,28.52-24.24,13.77,0,28.1,7.76,28.1,24.24v19.21H179.39v5.59c-.28,11.58,20.31,14.43,26.15,2.58Zm-12.52-34.87c0-13.21-27-13.35-26.43.27v6.81h26.43Z" transform="translate(-65.52 -229.52)"/><path class="cls-1" d="M512.27,313.25c-5.57,9.67-16.42,14.44-25.87,14.44-14.19,0-28.52-8-28.52-24.24v-24.8c0-16.48,14.33-24.24,28.52-24.24,13.77,0,28.1,7.76,28.1,24.24v19.21H473.32v5.59C473,315,493.63,317.88,499.47,306Zm-12.52-34.87c0-13.21-27-13.35-26.43.27v6.81h26.43Z" transform="translate(-65.52 -229.52)"/><path class="cls-1" d="M138.68,257v46.9c0,13.3-21,11.92-21,.56V257H101.84v47.46c0,11.36-21,12.61-21-.56V257H65.52v47.2c0,24.94,31.11,30.33,43,16.24,0,0,1.15-1.63,1.33-1.95,10.52,16.52,44.5,11.76,44.5-14.29V257Z" transform="translate(-65.52 -229.52)"/><path class="cls-1" d="M291.44,279.16c0-16.77,14.39-24.87,28.5-24.87,11.32,0,24.17,5.17,28.08,19l-14,5.31c-3.77-13.55-25.7-11.46-27.24.42v24.72c1.54,11.87,23.47,14,27.24.42l14.25,5.31c-3.91,13.83-17,19-28.36,19-14.11,0-28.5-8.11-28.5-24.87Z" transform="translate(-65.52 -229.52)"/><path class="cls-1" d="M418.62,278.38v48.13h15.66V278.68c0-9.24,10.09-11.38,16.26-8l6.63-12.43C443.38,249.43,418.62,256.14,418.62,278.38Z" transform="translate(-65.52 -229.52)"/><path class="cls-1" d="M254.75,314c-6.86-.52-10-3.31-10-8.55V229.52h-15.3v75.89c0,14.56,9.09,22.22,25.32,22.93Z" transform="translate(-65.52 -229.52)"/><path class="cls-1" d="M286.43,314.49c-6.86-.53-10-3.32-10-8.56V229.52h-15.3v76.41c0,14.56,9.09,22.22,25.32,22.93Z" transform="translate(-65.52 -229.52)"/></svg>